<?xml version="1.0" standalone="no"?><!DOCTYPE svg PUBLIC "-//W3C//DTD SVG 1.1//EN" "http://www.w3.org/Graphics/SVG/1.1/DTD/svg11.dtd"><svg t="1695625596181" class="icon" viewBox="0 0 1024 1024" version="1.1" xmlns="http://www.w3.org/2000/svg" p-id="6968" width="16" height="16" xmlns:xlink="http://www.w3.org/1999/xlink"><path d="M959.2 957.6H609.6c-8.8 0-16-7.2-16-16s7.2-16 16-16h349.6c8.8 0 16 7.2 16 16s-7.2 16-16 16z m-516 0h-344c-8.8 0-16-7.2-16-16s7.2-16 16-16h343.2c8.8 0 16 7.2 16 16 0.8 8.8-6.4 16-15.2 16z m86.4-64.8c-8.8 0-16-7.2-16-16v-92c0-8.8 7.2-16 16-16s16 7.2 16 16v92c0 8.8-7.2 16-16 16z" p-id="6969"></path><path d="M953.6 800.8H70.4c-4.8 0-9.6-2.4-12.8-6.4L7.2 727.2c-2.4-2.4-3.2-6.4-3.2-9.6V532c0-8.8 7.2-16 16-16h984c8.8 0 16 7.2 16 16v185.6c0 3.2-0.8 7.2-3.2 9.6l-50.4 67.2c-3.2 4-8 6.4-12.8 6.4z m-875.2-32h866.4l42.4-56.8V548H36v164l42.4 56.8z" p-id="6970"></path><path d="M953.6 548H70.4c-4.8 0-9.6-2.4-12.8-6.4L7.2 474.4C4.8 472 4 468 4 464.8V279.2c0-8.8 7.2-16 16-16h984c8.8 0 16 7.2 16 16v185.6c0 3.2-0.8 7.2-3.2 9.6l-50.4 67.2c-3.2 4-8 6.4-12.8 6.4zM78.4 516h866.4l42.4-56.8v-164H36V460l42.4 56z" p-id="6971"></path><path d="M953.6 295.2H70.4c-4.8 0-9.6-2.4-12.8-6.4L7.2 221.6C4.8 219.2 4 215.2 4 212V25.6c0-8.8 7.2-16 16-16h984c8.8 0 16 7.2 16 16v185.6c0 3.2-0.8 7.2-3.2 9.6L966.4 288c-3.2 4.8-8 7.2-12.8 7.2z m-875.2-32h866.4l42.4-56.8V41.6H36v164.8l42.4 56.8z" p-id="6972"></path><path d="M99.2 206.4c-4.8 0-8-3.2-8-8v-92c0-4.8 3.2-8 8-8s8 3.2 8 8v92c0 4.8-3.2 8-8 8z m90.4 0c-4.8 0-8-3.2-8-8v-92c0-4.8 3.2-8 8-8s8 3.2 8 8v92c0 4.8-4 8-8 8z m89.6 0c-4.8 0-8-3.2-8-8v-92c0-4.8 3.2-8 8-8s8 3.2 8 8v92c0 4.8-3.2 8-8 8z m90.4 0c-4.8 0-8-3.2-8-8v-92c0-4.8 3.2-8 8-8s8 3.2 8 8v92c0 4.8-4 8-8 8zM663.2 184c-4.8 0-8-3.2-8-8v-48c0-4.8 3.2-8 8-8s8 3.2 8 8v48c0 4.8-3.2 8-8 8z m118.4 0c-4.8 0-8-3.2-8-8v-48c0-4.8 3.2-8 8-8s8 3.2 8 8v48c0 4.8-3.2 8-8 8z m119.2 0c-4.8 0-8-3.2-8-8v-48c0-4.8 3.2-8 8-8s8 3.2 8 8v48c0 4.8-4 8-8 8zM663.2 437.6c-4.8 0-8-3.2-8-8v-48c0-4.8 3.2-8 8-8s8 3.2 8 8v48c0 4-3.2 8-8 8z m118.4 0c-4.8 0-8-3.2-8-8v-48c0-4.8 3.2-8 8-8s8 3.2 8 8v48c0 4-3.2 8-8 8z m119.2 0c-4.8 0-8-3.2-8-8v-48c0-4.8 3.2-8 8-8s8 3.2 8 8v48c0 4-4 8-8 8zM663.2 690.4c-4.8 0-8-3.2-8-8v-48c0-4.8 3.2-8 8-8s8 3.2 8 8v48c0 4-3.2 8-8 8z m118.4 0c-4.8 0-8-3.2-8-8v-48c0-4.8 3.2-8 8-8s8 3.2 8 8v48c0 4-3.2 8-8 8z m119.2 0c-4.8 0-8-3.2-8-8v-48c0-4.8 3.2-8 8-8s8 3.2 8 8v48c0 4-4 8-8 8zM99.2 459.2c-4.8 0-8-3.2-8-8v-92c0-4.8 3.2-8 8-8s8 3.2 8 8v92c0 4.8-3.2 8-8 8z m90.4 0c-4.8 0-8-3.2-8-8v-92c0-4.8 3.2-8 8-8s8 3.2 8 8v92c0 4.8-4 8-8 8z m89.6 0c-4.8 0-8-3.2-8-8v-92c0-4.8 3.2-8 8-8s8 3.2 8 8v92c0 4.8-3.2 8-8 8z m90.4 0c-4.8 0-8-3.2-8-8v-92c0-4.8 3.2-8 8-8s8 3.2 8 8v92c0 4.8-4 8-8 8zM99.2 712.8c-4.8 0-8-3.2-8-8V612c0-4.8 3.2-8 8-8s8 3.2 8 8v92c0 4.8-3.2 8.8-8 8.8z m90.4 0c-4.8 0-8-3.2-8-8V612c0-4.8 3.2-8 8-8s8 3.2 8 8v92c0 4.8-4 8.8-8 8.8z m89.6 0c-4.8 0-8-3.2-8-8V612c0-4.8 3.2-8 8-8s8 3.2 8 8v92c0 4.8-3.2 8.8-8 8.8z m90.4 0c-4.8 0-8-3.2-8-8V612c0-4.8 3.2-8 8-8s8 3.2 8 8v92c0 4.8-4 8.8-8 8.8z m220.8 188.8v80.8H468v-80.8h122.4m0-32H468c-17.6 0-32 14.4-32 32v80.8c0 17.6 14.4 32 32 32h123.2c17.6 0 32-14.4 32-32v-80.8c-0.8-18.4-14.4-32-32.8-32z" p-id="6973"></path></svg>