<?xml version="1.0" standalone="no"?><!DOCTYPE svg PUBLIC "-//W3C//DTD SVG 1.1//EN" "http://www.w3.org/Graphics/SVG/1.1/DTD/svg11.dtd"><svg t="1695632820611" class="icon" viewBox="0 0 1024 1024" version="1.1" xmlns="http://www.w3.org/2000/svg" p-id="20955" width="22" height="22" xmlns:xlink="http://www.w3.org/1999/xlink"><path d="M487.99744 693.71904c-56.84224-57.22112-83.5584-129.6384-115.56864-199.43424-5.59104-12.1344 1.19808-41.70752-33.73056-27.11552-25.344 10.5472-43.264 16.78336-34.97984 50.33984 23.79776 96.3072 102.95296 136.47872 184.33024 176.22016M76.34944 386.82624c40.11008 4.36224 44.8512 38.57408 55.92064 64.8704 9.02144 21.53472 20.66432 28.08832 44.288 30.54592 52.67456 5.46816 100.21888-8.41728 147.2512-26.89024 39.71072-15.62624 81.09056-24.81152 122.92096-33.2288 21.8112-4.42368 28.25216 1.5872 26.03008 22.528-2.05824 19.5072-1.14688 39.34208-0.11264 59.02336 0.512 10.27072 0.91136 27.32032 6.61504 29.62432 82.29888 33.88416 35.15392 136.36608 109.34272 171.78624l31.44704-51.43552c50.62656 38.58432 98.56 94.0032 170.36288 58.368 65.05472-32.29696 78.40768-97.72032 91.31008-168.00768-26.25536 12.56448-46.336 34.32448-72.6528 11.4688-7.70048-6.76864-10.496 6.56384-13.12768 13.01504-5.70368 13.99808-9.9328 28.85632-29.56288 44.00128 17.8688-37.9904-16.83456-37.33504-29.3888-52.46976 48.8448-22.41536 57.52832-48.32256 28.13952-100.89472-26.25536-47.0016-43.95008-92.64128-11.13088-144.0768 14.66368-23.07072 6.78912-49.52064 2.33472-74.60864 22.26176 15.08352 30.02368 37.60128 17.52064 58.48064-34.304 57.28256-21.56544 108.11392 15.12448 158.12608 16.54784 22.56896 26.14272 47.872 27.79136 74.77248 14.03904 3.00032 23.3472-3.8912 32.99328-8.704 31.8464-15.62624 49.8176 2.51904 47.13472 27.50464-5.4784 50.83136-15.5136 102.58432-49.47968 144.83456-38.57408 48.15872-87.0912 59.96544-147.3536 35.74784-19.00544-7.64928-31.67232-10.21952-50.85184 2.4576-29.27616 19.3536-59.8016 16.9472-82.00192-14.5408-4.34176-6.22592-7.53664-14.7456-13.70112-17.8688-11.13088-5.57056-25.10848-8.0384-35.26656 1.6896-11.9808 11.59168 2.67264 18.91328 8.16128 26.24512 7.63904 10.27072 18.0224 18.7392 27.9552 28.69248-22.25152 7.3728-34.816-10.87488-53.69856-17.16224-1.024 36.352 18.432 48.70144 52.67456 49.13152-6.85056 12.24704-36.17792 10.05568-20.25472 30.6176 15.34976 19.6608 24.08448 47.54432 60.3136 41.97376 21.69856-3.38944 18.09408-17.38752 18.55488-30.39232 0.45056-15.14496 0.33792-30.33088 0.0512-45.47584-0.22528-15.08352 1.77152-26.44992 22.60992-26.44992 22.07744 0 20.59264 13.44512 21.27872 27.32032 0.57344 11.75552 1.9968 23.5008 3.65568 41.59488 16.60928-14.592 10.4448-28.57984 10.9568-39.89504 0.79872-16.2816 0.22528-30.0032 24.25856-29.0816 20.9408 0.8192 21.56544 12.8 21.56544 27.4432-0.1024 43.66336 0.17408 87.3472 0.4096 131.01056 0.0512 15.96416 0.33792 30.1056-23.97184 30.06464-25.96864 0-21.06368-16.73216-21.8112-31.16032-0.67584-13.1072-1.24928-26.12224-2.27328-48.37376-18.15552 22.95808-11.8784 41.216-12.21632 57.67168-0.28672 15.02208-5.14048 21.9648-21.8624 22.19008-16.54784 0.16384-24.19712-6.12352-22.016-21.31968 5.5296-38.8608-13.70112-37.71392-42.01472-25.30304-8.56064 3.76832-22.9376 12.1344-23.8592-6.17472-1.71008-35.584-24.9856-26.7264-46.7968-23.23456-88.51456 14.21312-121.9584 2.94912-184.50432-65.31072 52.44928 14.26432 97.9968 35.19488 148.10112 33.06496 14.21312-0.60416 37.66272 6.01088 39.3728-12.62592 1.72032-18.20672-18.59584-25.74336-37.48864-27.27936a414.18752 414.18752 0 0 1-166.08256-48.96768c-39.20896-21.15584-44.51328-31.37536-43.3664-93.184 57.46688 44.7488 115.5072 83.5072 188.04736 94.44352 12.9024 1.96608 27.8528 14.10048 34.304-7.92576 6.10304-20.76672-7.77216-25.31328-24.832-29.67552-57.35424-14.65344-109.69088-37.9904-150.7328-81.12128-57.40544-60.33408-59.00288-70.12352-15.62624-146.37056-40.3456 1.09568-77.39392 12.0832-115.74272 9.6768-25.56928-1.6384-41.43104-7.70048-48.96768-32.02048-9.0112-29.40928-26.70592-54.66112-46.04928-78.76608M757.76 242.25792c-19.9168-22.79424-39.2192-46.1312-59.92448-68.32128-33.3824-35.79904-96.62464-40.71424-136.3456-12.40064-20.54144 14.6432-26.48064 24.04352 0.57344 41.04192 57.46688 36.29056 67.7888 59.68896 68.02432 119.36768C559.27808 170.65984 401.59232 134.58432 251.904 88.18688c-22.77376-7.10656-43.54048 6.01088-56.95488 24.64768a337.60256 337.60256 0 0 1-55.47008 60.93824c17.4592 19.456 47.88224 13.39392 62.14656 38.97344-29.50144-8.30464-55.808-17.48992-82.98496-23.07072C52.3776 176.0256 10.5984 217.55904 20.48 282.2144c5.31456 35.47136 31.04768 58.48064 47.60576 87.00928-76.0832-38.8096-91.32032-133.95968-30.8224-190.42304 7.07584-6.5536 14.4384-13.33248 24.4736-11.20256 50.57536 10.5472 81.73568-18.47296 106.9568-51.97824 35.66592-47.44192 79.32928-49.29536 132.11648-33.78176a755.78368 755.78368 0 0 1 179.32288 79.09376c25.4976 15.4624 43.47904 18.5344 69.28384-4.37248 47.02208-41.75872 118.12864-35.69664 160.99328 9.8304 20.65408 21.92384 43.93984 43.6224 47.37024 75.8784m91.0848 591.104c17.34656-21.64736 11.40736-39.02464 14.37696-54.66112 3.65568-19.12832 17.34656-18.80064 31.95904-18.08384 20.55168 0.9216 16.09728 15.29856 13.98784 26.50112-9.13408 47.55456-19.51744 94.83264-28.42624 142.4384-2.9696 15.85152-13.4144 18.7392-27.10528 18.96448-14.55104 0.22528-28.98944 0.7168-32.768-17.92-10.4448-51.8144-21.34016-103.5776-31.9488-155.4432-2.85696-13.78304 7.9872-14.60224 17.408-14.76608 11.91936-0.16384 26.64448-4.0448 30.47424 13.17888 3.81952 17.48992 7.12704 35.14368 12.04224 59.79136m118.92736-23.72608c1.25952 6.12352-1.42336 14.76608 1.25952 15.2576 12.78976 2.4576 36.98688 2.01728 38.52288 12.1344 0.68608 4.37248 0.79872 10.92608 1.08544 16.66048 0.11264 3.072 0.512 15.42144-1.59744 18.25792-6.27712 8.52992-18.49344 7.10656-37.43744 13.34272 1.37216 3.44064-0.86016 7.59808 0.9728 9.40032 6.90176 6.77888 20.25472 2.56 28.12928 3.00032 31.62112 1.75104 27.74016 27.11552 19.4048 38.912-17.80736 25.36448-48.90624 8.59136-74.07616 11.10016-20.60288 2.07872-19.968-14.7456-20.09088-28.52864-0.17408-45.19936 0.4608-90.39872-0.45056-135.59808-0.4096-17.664 6.5024-26.7264 24.4224-22.95808 24.08448 5.19168 58.2144-16.83456 71.28064 14.10048 15.63648 36.94592-23.17312 31.26272-51.42528 34.9184m-190.89408 46.0288c0 22.6304-0.4096 45.3632 0.16384 67.9936 0.4096 16.384-4.79232 25.79456-24.13568 24.69888-14.83776-0.8192-23.74656-5.19168-23.62368-21.1456 0.33792-48.37376 0.39936-96.74752-0.06144-145.05984-0.17408-18.80064 10.84416-21.8624 27.22816-22.02624 17.92-0.22528 20.8896 9.33888 20.76672 23.00928-0.22528 24.20736-0.0512 48.37376-0.0512 72.52992h-0.28672zM421.7856 273.3056c101.80608-11.75552 117.0432-2.73408 141.53728 83.73248-21.9136-19.3536-33.792-47.60576-68.48512-43.7248-10.3936 1.19808-10.8544-2.73408 8.27392-21.69856-26.88-10.16832-54.2208-13.44512-81.32608-18.30912m212.992 241.2032c16.37376-16.1792 32.9216-25.856 50.44224-9.23648 6.27712 5.94944 10.33216 18.24768 1.9456 24.32-23.12192 16.50688-31.7952-17.27488-52.39808-15.08352" fill="#1B2532" p-id="20956"></path></svg>