<?xml version="1.0" standalone="no"?><!DOCTYPE svg PUBLIC "-//W3C//DTD SVG 1.1//EN" "http://www.w3.org/Graphics/SVG/1.1/DTD/svg11.dtd"><svg t="1701244806030" class="icon" viewBox="0 0 1365 1024" version="1.1" xmlns="http://www.w3.org/2000/svg" p-id="7576" width="14" height="14" xmlns:xlink="http://www.w3.org/1999/xlink"><path d="M1364.773255 42.708285l-168.625755 938.587376a53.328828 53.328828 0 0 1-51.195675 42.663062H992.858007a34.983711 34.983711 0 0 1-35.730315-42.663062l103.244612-575.098083c2.133153-12.052315-14.505441-14.825414-20.47827-3.413045L725.467263 995.161156a53.328828 53.328828 0 0 1-46.076108 28.797567h-177.051709a34.770396 34.770396 0 0 1-35.94363-28.797567L364.964385 402.784533c-1.919838-11.412369-19.625009-8.63927-21.331532 3.413045L239.961611 981.295661a53.968774 53.968774 0 0 1-51.195675 42.663062H36.672118a35.090369 35.090369 0 0 1-35.836972-42.663062L169.460901 42.708285a53.328828 53.328828 0 0 1 51.195675-42.663062h283.49605a34.557081 34.557081 0 0 1 35.836973 28.797567l106.657656 625.120524c1.599865 9.599189 15.46536 9.599189 20.47827 0L999.150809 28.84279A54.182089 54.182089 0 0 1 1045.440232 0.045223h283.49605a35.090369 35.090369 0 0 1 35.836973 42.663062z" p-id="7577"></path></svg>